<svg width="25" height="26" viewBox="0 0 25 26" fill="none" xmlns="http://www.w3.org/2000/svg">
<path d="M5.125 21.1403L6.96875 22.5673C7.20834 22.8069 7.73958 22.9215 8.10417 22.9215H10.3646C11.0833 22.9215 11.8542 22.3903 12.0313 21.6715L13.4583 17.3277C13.7604 16.4944 13.2188 15.7757 12.3229 15.7757H9.9375C9.58334 15.7757 9.28125 15.4735 9.34375 15.0568L9.64584 13.1506C9.76042 12.6194 9.40625 12.0152 8.875 11.8381C8.39583 11.661 7.80209 11.9006 7.5625 12.2548L5.125 15.8902" stroke="white" stroke-width="1.5625" stroke-miterlimit="10"/>
<path d="M2.08301 21.1403V15.307C2.08301 14.4736 2.43717 14.1714 3.27051 14.1714H3.86426C4.69759 14.1714 5.05176 14.4736 5.05176 15.307V21.1403C5.05176 21.9736 4.69759 22.2756 3.86426 22.2756H3.27051C2.43717 22.2756 2.08301 21.984 2.08301 21.1403Z" stroke="white" stroke-width="1.5625" stroke-linecap="round" stroke-linejoin="round"/>
<path d="M19.8745 3.89022L18.0308 2.46314C17.7912 2.22356 17.2599 2.10901 16.8954 2.10901H14.635C13.9162 2.10901 13.1454 2.64021 12.9683 3.35896L11.5412 7.70275C11.2391 8.53609 11.7808 9.25483 12.6766 9.25483H15.062C15.4162 9.25483 15.7183 9.55698 15.6558 9.97364L15.3537 11.8798C15.2391 12.4111 15.5933 13.0153 16.1245 13.1924C16.6037 13.3694 17.1974 13.1298 17.437 12.7757L19.8745 9.14026" stroke="white" stroke-width="1.5625" stroke-miterlimit="10"/>
<path d="M22.916 3.8902V9.72351C22.916 10.5568 22.5618 10.859 21.7285 10.859H21.1348C20.3014 10.859 19.9473 10.5568 19.9473 9.72351V3.8902C19.9473 3.05687 20.3014 2.75482 21.1348 2.75482H21.7285C22.5618 2.75482 22.916 3.04645 22.916 3.8902Z" stroke="white" stroke-width="1.5625" stroke-linecap="round" stroke-linejoin="round"/>
</svg>
