<svg width="25" height="26" viewBox="0 0 25 26" fill="none" xmlns="http://www.w3.org/2000/svg">
<path d="M8.85384 19.8069H8.33301C4.16634 19.8069 2.08301 18.7652 2.08301 13.5569V8.34857C2.08301 4.18191 4.16634 2.09857 8.33301 2.09857H16.6663C20.833 2.09857 22.9163 4.18191 22.9163 8.34857V13.5569C22.9163 17.7236 20.833 19.8069 16.6663 19.8069H16.1455C15.8226 19.8069 15.5101 19.9632 15.3122 20.2236L13.7497 22.3069C13.0622 23.2236 11.9372 23.2236 11.2497 22.3069L9.68717 20.2236C9.52051 19.9944 9.13509 19.8069 8.85384 19.8069Z" stroke="#045E70" stroke-width="1.5625" stroke-miterlimit="10" stroke-linecap="round" stroke-linejoin="round"/>
<path d="M7.29199 8.34857H17.7087" stroke="#045E70" stroke-width="1.5625" stroke-linecap="round" stroke-linejoin="round"/>
<path d="M7.29199 13.5569H13.542" stroke="#045E70" stroke-width="1.5625" stroke-linecap="round" stroke-linejoin="round"/>
</svg>
