<svg width="25" height="26" viewBox="0 0 25 26" fill="none" xmlns="http://www.w3.org/2000/svg">
<path d="M12.4997 22.932C6.74967 22.932 2.08301 18.2653 2.08301 12.5153C2.08301 6.7653 6.74967 2.09863 12.4997 2.09863C18.2497 2.09863 22.9163 6.7653 22.9163 12.5153C22.9163 18.2653 18.2497 22.932 12.4997 22.932Z" stroke="#045E70" stroke-width="1.5625" stroke-linecap="round" stroke-linejoin="round"/>
<path d="M11.3333 14.755C10.8021 15.2134 10.1146 15.505 9.36458 15.505C7.71874 15.505 6.375 14.1717 6.375 12.5154C6.375 10.8592 7.70833 9.52585 9.36458 9.52585C10.125 9.52585 10.8125 9.80707 11.3333 10.2758" stroke="#045E70" stroke-width="1.5625" stroke-linecap="round" stroke-linejoin="round"/>
<path d="M18.6253 14.755C18.0941 15.2134 17.4066 15.505 16.6566 15.505C15.0107 15.505 13.667 14.1717 13.667 12.5154C13.667 10.8592 15.0003 9.52585 16.6566 9.52585C17.417 9.52585 18.1045 9.80707 18.6253 10.2758" stroke="#045E70" stroke-width="1.5625" stroke-linecap="round" stroke-linejoin="round"/>
</svg>
