<svg width="24" height="25" viewBox="0 0 24 25" fill="none" xmlns="http://www.w3.org/2000/svg">
<path d="M9 22.5153H15C20 22.5153 22 20.5153 22 15.5153V9.51526C22 4.51526 20 2.51526 15 2.51526H9C4 2.51526 2 4.51526 2 9.51526V15.5153C2 20.5153 4 22.5153 9 22.5153Z" stroke="#045E70" stroke-width="1.5" stroke-linecap="round" stroke-linejoin="round"/>
<path d="M15.5703 19.0152V15.1152" stroke="#045E70" stroke-width="1.5" stroke-miterlimit="10" stroke-linecap="round" stroke-linejoin="round"/>
<path d="M15.5703 7.96526V6.01526" stroke="#045E70" stroke-width="1.5" stroke-miterlimit="10" stroke-linecap="round" stroke-linejoin="round"/>
<path d="M15.5697 13.1653C17.0057 13.1653 18.1697 12.0012 18.1697 10.5653C18.1697 9.12933 17.0057 7.96527 15.5697 7.96527C14.1338 7.96527 12.9697 9.12933 12.9697 10.5653C12.9697 12.0012 14.1338 13.1653 15.5697 13.1653Z" stroke="#045E70" stroke-width="1.5" stroke-miterlimit="10" stroke-linecap="round" stroke-linejoin="round"/>
<path d="M8.42969 19.0152V17.0652" stroke="#045E70" stroke-width="1.5" stroke-miterlimit="10" stroke-linecap="round" stroke-linejoin="round"/>
<path d="M8.42969 9.91526V6.01526" stroke="#045E70" stroke-width="1.5" stroke-miterlimit="10" stroke-linecap="round" stroke-linejoin="round"/>
<path d="M8.43008 17.0652C9.86602 17.0652 11.0301 15.9012 11.0301 14.4652C11.0301 13.0293 9.86602 11.8652 8.43008 11.8652C6.99414 11.8652 5.83008 13.0293 5.83008 14.4652C5.83008 15.9012 6.99414 17.0652 8.43008 17.0652Z" stroke="#045E70" stroke-width="1.5" stroke-miterlimit="10" stroke-linecap="round" stroke-linejoin="round"/>
</svg>
