<svg width="30" height="30" viewBox="0 0 30 30" fill="none" xmlns="http://www.w3.org/2000/svg">
<path d="M5.08333 24.9167H12.5208C12.5208 25.5742 12.782 26.2048 13.247 26.6697C13.7119 27.1346 14.3425 27.3958 15 27.3958C15.6575 27.3958 16.2881 27.1346 16.753 26.6697C17.218 26.2048 17.4792 25.5742 17.4792 24.9167H24.9167C25.2454 24.9167 25.5607 24.7861 25.7932 24.5536C26.0257 24.3211 26.1562 24.0058 26.1562 23.6771C26.1562 23.3483 26.0257 23.033 25.7932 22.8006C25.5607 22.5681 25.2454 22.4375 24.9167 22.4375V13.7604C24.9167 11.1304 23.8719 8.60801 22.0121 6.74827C20.1524 4.88854 17.6301 3.84375 15 3.84375C12.3699 3.84375 9.84759 4.88854 7.98786 6.74827C6.12812 8.60801 5.08333 11.1304 5.08333 13.7604V22.4375C4.75458 22.4375 4.43928 22.5681 4.20682 22.8006C3.97435 23.033 3.84375 23.3483 3.84375 23.6771C3.84375 24.0058 3.97435 24.3211 4.20682 24.5536C4.43928 24.7861 4.75458 24.9167 5.08333 24.9167ZM7.5625 13.7604C7.5625 11.7879 8.34609 9.89611 9.74089 8.50131C11.1357 7.10651 13.0275 6.32292 15 6.32292C16.9725 6.32292 18.8643 7.10651 20.2591 8.50131C21.6539 9.89611 22.4375 11.7879 22.4375 13.7604V22.4375H7.5625V13.7604Z" fill="#045E70"/>
</svg>
