<svg width="25" height="26" viewBox="0 0 25 26" fill="none" xmlns="http://www.w3.org/2000/svg">
<path d="M22.5624 10.8903L21.5415 15.2445C20.6665 19.0049 18.9374 20.5257 15.6874 20.2132C15.1665 20.1715 14.604 20.0778 13.9999 19.932L12.2499 19.5153C7.90611 18.484 6.56236 16.3382 7.5832 11.984L8.60403 7.61945C8.81236 6.73404 9.06236 5.9632 9.37486 5.32779C10.5936 2.80695 12.6665 2.12987 16.1457 2.95279L17.8853 3.35904C22.2499 4.37987 23.5832 6.53612 22.5624 10.8903Z" stroke="#045E70" stroke-width="1.5625" stroke-linecap="round" stroke-linejoin="round"/>
<path d="M15.6881 20.2133C15.0423 20.6508 14.2298 21.0154 13.2402 21.3383L11.5943 21.88C7.45893 23.2133 5.28185 22.0987 3.9381 17.9633L2.60477 13.8487C1.27143 9.7133 2.3756 7.5258 6.51102 6.19246L8.15685 5.6508C8.58393 5.51538 8.99018 5.4008 9.3756 5.32788C9.0631 5.9633 8.8131 6.73413 8.60477 7.61955L7.58393 11.9841C6.5631 16.3383 7.90685 18.4841 12.2506 19.5154L14.0006 19.932C14.6048 20.0779 15.1673 20.1716 15.6881 20.2133Z" stroke="#045E70" stroke-width="1.5625" stroke-linecap="round" stroke-linejoin="round"/>
<path d="M13.166 8.90073L18.2181 10.182" stroke="#045E70" stroke-width="1.5625" stroke-linecap="round" stroke-linejoin="round"/>
<path d="M12.1465 12.9319L15.1673 13.7027" stroke="#045E70" stroke-width="1.5625" stroke-linecap="round" stroke-linejoin="round"/>
</svg>
