<svg width="25" height="26" viewBox="0 0 25 26" fill="none" xmlns="http://www.w3.org/2000/svg">
<path d="M9.54167 11.3382C9.4375 11.3278 9.3125 11.3278 9.19792 11.3382C6.71875 11.2549 4.75 9.22363 4.75 6.72363C4.75 4.17155 6.8125 2.09863 9.375 2.09863C11.9271 2.09863 14 4.17155 14 6.72363C13.9896 9.22363 12.0208 11.2549 9.54167 11.3382Z" stroke="#045E70" stroke-width="1.5625" stroke-linecap="round" stroke-linejoin="round"/>
<path d="M17.0944 4.18195C19.1152 4.18195 20.7402 5.81736 20.7402 7.82778C20.7402 9.79653 19.1777 11.4007 17.2298 11.4736C17.1465 11.4632 17.0527 11.4632 16.959 11.4736" stroke="#045E70" stroke-width="1.5625" stroke-linecap="round" stroke-linejoin="round"/>
<path d="M4.33301 15.1819C1.81217 16.8694 1.81217 19.6194 4.33301 21.2965C7.19759 23.2132 11.8955 23.2132 14.7601 21.2965C17.2809 19.609 17.2809 16.859 14.7601 15.1819C11.9059 13.2757 7.20801 13.2757 4.33301 15.1819Z" stroke="#045E70" stroke-width="1.5625" stroke-linecap="round" stroke-linejoin="round"/>
<path d="M19.1035 20.8486C19.8535 20.6924 20.5618 20.3903 21.1452 19.9424C22.7702 18.7236 22.7702 16.7132 21.1452 15.4945C20.5723 15.057 19.8743 14.7653 19.1348 14.5986" stroke="#045E70" stroke-width="1.5625" stroke-linecap="round" stroke-linejoin="round"/>
</svg>
